<svg width="235" height="55" viewBox="0 0 235 55" xmlns="http://www.w3.org/2000/svg" xmlns:sketch="http://www.bohemiancoding.com/sketch/ns"><title/><path d="M33.178 0c-.056 0-33.178 18.392-33.178 18.392s8.287 12.175 33.15 12.175l.028-.001.028.001c24.862 0 33.15-12.175 33.15-12.175l-33.177-18.392zm0 32.709c-20.048 0-26.731-6.654-26.731-6.654l1.831 23.65c2.623 1.623 8.287 4.239 18.394 5.058l-.115-6.676c0-3.641 2.964-6.593 6.621-6.593 3.656 0 6.62 2.952 6.62 6.593l-.119 6.676c10.773-.871 16.5-3.786 18.876-5.364l1.352-23.343s-6.682 6.654-26.73 6.654zm88.519-25.444v15.643h-16.984v-16.7s-3.84.853-7.193 1.083c-3.353.229-7.161-.027-7.161-.027v46.141h14.355v-18.044h16.984v18.044h14.355v-47.197s-3.166.835-7.172 1.136c-4.005.301-7.183-.079-7.183-.079zm43.489 13.02v20.031c-1.066 1.203-2.558 2.689-5.401 2.689-3.127 0-4.974-1.345-4.974-4.812v-18.965s-3.353.86-6.554 1.114c-3.202.255-6.238-.058-6.238-.058v23.357c0 5.873 3.411 10.614 11.37 10.614 6.04 0 9.807-2.477 11.797-4.67v3.821h12.791v-34.178s-3.519.865-6.585 1.117c-3.066.253-6.206-.061-6.206-.061zm66.441 22.083c-.284.283-1.421.637-2.558.637-1.705 0-2.842-1.416-2.842-3.184v-9.553h6.964v-11.039h-6.964v-9.34s-2.836.822-6.185 1.084c-3.349.261-6.606-.027-6.606-.027v8.284h-12.933v-9.34s-3.027.809-6.398 1.102c-3.371.291-6.394-.046-6.394-.046v8.284h-5.685v11.039h5.685v13.232c0 7.147 4.193 10.756 11.797 10.756 4.334 0 8.38-2.118 9.73-3.321l-3.334-8.567c-.285.283-1.422.637-2.558.637-1.705 0-2.843-1.416-2.843-3.184v-9.553h12.933v13.232c0 7.147 4.193 10.756 11.796 10.756 4.335 0 8.38-2.118 9.73-3.321l-3.335-8.567z" fill="#000" sketch:type="MSShapeGroup"/></svg>